<?xml version="1.0" encoding="UTF-8"?>
<!DOCTYPE svg PUBLIC "-//W3C//DTD SVG 1.1//EN" "http://www.w3.org/Graphics/SVG/1.1/DTD/svg11.dtd">
<svg xmlns="http://www.w3.org/2000/svg" version="1.1" width="24px" height="24px" style="shape-rendering:geometricPrecision; text-rendering:geometricPrecision; image-rendering:optimizeQuality; fill-rule:evenodd; clip-rule:evenodd" xmlns:xlink="http://www.w3.org/1999/xlink">
<g><path style="opacity:0.858" fill="#000000" d="M 12.5,0.5 C 13.5,0.5 14.5,0.5 15.5,0.5C 15.7564,2.7925 15.4231,4.95917 14.5,7C 17.146,7.49742 19.8127,7.66409 22.5,7.5C 22.926,12.0321 21.926,16.1988 19.5,20C 13.1754,20.4995 6.84209,20.6662 0.5,20.5C 0.5,16.5 0.5,12.5 0.5,8.5C 5.74358,7.95911 9.74358,5.29245 12.5,0.5 Z M 10.5,6.5 C 11.404,7.20895 11.7373,8.20895 11.5,9.5C 14.5719,9.18259 17.5719,9.51592 20.5,10.5C 18.9239,12.9793 17.9239,15.646 17.5,18.5C 14.5,18.5 11.5,18.5 8.5,18.5C 7.99048,14.1869 8.65715,10.1869 10.5,6.5 Z M 2.5,10.5 C 3.83333,10.5 5.16667,10.5 6.5,10.5C 6.5,13.1667 6.5,15.8333 6.5,18.5C 5.16667,18.5 3.83333,18.5 2.5,18.5C 2.5,15.8333 2.5,13.1667 2.5,10.5 Z"/></g>
</svg>
